<?xml version="1.0" encoding="UTF-8" standalone="no"?>
<!-- Created with Inkscape (http://www.inkscape.org/) -->

<svg
   width="210mm"
   height="297mm"
   viewBox="0 0 210 297"
   version="1.1"
   id="svg1"
   inkscape:version="1.3.2 (091e20e, 2023-11-25, custom)"
   sodipodi:docname="drawing.svg"
   xmlns:inkscape="http://www.inkscape.org/namespaces/inkscape"
   xmlns:sodipodi="http://sodipodi.sourceforge.net/DTD/sodipodi-0.dtd"
   xmlns:xlink="http://www.w3.org/1999/xlink"
   xmlns="http://www.w3.org/2000/svg"
   xmlns:svg="http://www.w3.org/2000/svg">
  <sodipodi:namedview
     id="namedview1"
     pagecolor="#505050"
     bordercolor="#eeeeee"
     borderopacity="1"
     inkscape:showpageshadow="0"
     inkscape:pageopacity="0"
     inkscape:pagecheckerboard="0"
     inkscape:deskcolor="#505050"
     inkscape:document-units="mm"
     inkscape:zoom="0.12929276"
     inkscape:cx="-4601.9592"
     inkscape:cy="-2308.714"
     inkscape:window-width="1920"
     inkscape:window-height="1017"
     inkscape:window-x="1912"
     inkscape:window-y="-8"
     inkscape:window-maximized="1"
     inkscape:current-layer="layer1" />
  <defs
     id="defs1">
    <linearGradient
       id="linearGradient57"
       inkscape:collect="always">
      <stop
         style="stop-color:#adadad;stop-opacity:1;"
         offset="0"
         id="stop57" />
      <stop
         style="stop-color:#ffffff;stop-opacity:1;"
         offset="1"
         id="stop58" />
    </linearGradient>
    <linearGradient
       id="linearGradient39"
       inkscape:collect="always">
      <stop
         style="stop-color:#ef4f05;stop-opacity:1;"
         offset="0"
         id="stop39" />
      <stop
         style="stop-color:#fb862c;stop-opacity:1;"
         offset="1"
         id="stop40" />
    </linearGradient>
    <inkscape:path-effect
       effect="bend_path"
       id="path-effect39"
       is_visible="true"
       lpeversion="1"
       bendpath="m -9.2087523,-85.948355 c 52.7742653,-59.835785 146.9166123,-51.524945 202.2500423,0"
       prop_scale="1.307152"
       scale_y_rel="false"
       vertical="false"
       hide_knot="false"
       bendpath-nodetypes="cc" />
    <linearGradient
       inkscape:collect="always"
       xlink:href="#linearGradient39"
       id="linearGradient40"
       x1="-606.46894"
       y1="-392.85248"
       x2="-484.92693"
       y2="-392.85248"
       gradientUnits="userSpaceOnUse" />
    <linearGradient
       inkscape:collect="always"
       xlink:href="#linearGradient39"
       id="linearGradient49"
       gradientUnits="userSpaceOnUse"
       gradientTransform="translate(-781.38855,-293.74422)"
       x1="-606.46894"
       y1="-392.85248"
       x2="-484.92693"
       y2="-392.85248" />
    <linearGradient
       inkscape:collect="always"
       xlink:href="#linearGradient39"
       id="linearGradient50"
       gradientUnits="userSpaceOnUse"
       gradientTransform="translate(-703.24969,-373.33009)"
       x1="-606.46894"
       y1="-392.85248"
       x2="-484.92693"
       y2="-392.85248" />
    <linearGradient
       inkscape:collect="always"
       xlink:href="#linearGradient57"
       id="linearGradient61"
       gradientUnits="userSpaceOnUse"
       x1="-1312.6127"
       y1="-693.83173"
       x2="-1191.0707"
       y2="-693.83173" />
    <linearGradient
       inkscape:collect="always"
       xlink:href="#linearGradient57"
       id="linearGradient62"
       gradientUnits="userSpaceOnUse"
       x1="-1312.6127"
       y1="-693.83173"
       x2="-1191.0707"
       y2="-693.83173"
       gradientTransform="translate(-81.032887,-62.221681)" />
  </defs>
  <g
     inkscape:label="Layer 1"
     inkscape:groupmode="layer"
     id="layer1">
    <g
       id="g63"
       inkscape:export-filename="Hydrogen.png"
       inkscape:export-xdpi="16"
       inkscape:export-ydpi="16">
      <circle
         style="fill:url(#linearGradient40);stroke-width:0.854756"
         id="circle8"
         cx="-545.69794"
         cy="-392.85248"
         r="60.771008" />
      <g
         id="g37"
         transform="rotate(42.621426,435.48112,-960.16968)"
         inkscape:transform-center-y="-171.48918"
         inkscape:transform-center-x="-155.68711">
        <g
           id="g38"
           inkscape:transform-center-x="1.5347921"
           inkscape:transform-center-y="-144.01465">
          <path
             id="path8"
             style="fill:#3737c8;stroke-width:0.352777"
             d="m 29.318272,-115.11433 c 2.746896,5.70727 3.156814,12.38656 1.929656,18.160228 -1.228828,5.781521 -4.076735,10.626038 -8.166459,13.724501 -4.089723,3.098464 -9.518795,4.525544 -15.4139573,4.144137 -5.885495,-0.380781 -12.2086306,-2.578864 -16.963815,-6.763518 -4.8003777,-4.224426 -7.6846217,-10.24614 -7.2118677,-17.202098 0.470899,-6.92867 4.27988,-13.82359 10.5186466,-18.55016 6.23885887,-4.72664 13.9023191,-6.52373 20.6961694,-5.10227 6.819838,1.4269 11.839385,5.82925 14.611627,11.58918 z" />
          <path
             d="m 50.313722,-122.93837 c 1.771878,6.46133 0.916991,13.45592 -1.446086,19.23095 -2.2e-5,1e-4 -4.4e-5,2e-4 -6.7e-5,3e-4 -0.969101,2.36834 -2.181614,4.512788 -3.568808,6.372322 -2.019065,2.702974 -4.457793,4.839337 -7.301016,6.305208 -5.89e-4,3.04e-4 -0.0012,6.08e-4 -0.0018,9.11e-4 -4.77414,2.460785 -10.5781,2.941008 -16.640372,1.504156 C 15.36149,-90.945128 9.1275773,-94.28918 4.8521377,-99.503746 l -5.8e-4,-7.08e-4 c -4.32028221,-5.269676 -6.2518236,-12.046136 -4.54383914,-19.182356 1.69956834,-7.10192 6.88023974,-13.67884 14.38077044,-17.54671 9.49e-4,-4.9e-4 0.0019,-9.7e-4 0.0028,-0.001 4.492846,-2.31631 9.257879,-3.37904 13.759098,-3.31019 10.821248,0.2193 19.237482,7.03165 21.863255,16.6068 z"
             style="fill:#2d3ed1;stroke-width:0.372724px"
             id="path33" />
          <path
             d="m 75.102078,-127.28463 c 0.579732,7.0429 -1.667872,14.13341 -5.279645,19.64701 -9.5e-5,1.4e-4 -1.9e-4,2.9e-4 -2.85e-4,4.3e-4 -3.640065,5.55684 -8.51296,9.374531 -13.91031,10.940816 -6.72e-4,1.95e-4 -0.0013,3.9e-4 -0.002,5.84e-4 -3.288521,0.953983 -6.698985,1.075343 -10.166331,0.47519 -2.369292,-0.428961 -4.807809,-1.198707 -7.218803,-2.29381 -5.829983,-2.64801 -11.665906,-7.28917 -15.115748,-13.55333 l -3.78e-4,-6.8e-4 c -3.490276,-6.33799 -4.143743,-13.72773 -0.947002,-20.76131 1.288838,-2.83478 3.1597,-5.48994 5.546398,-7.82406 3.45945,-3.37362 7.920725,-6.00344 12.964306,-7.4702 0.0011,-3.2e-4 0.0021,-6.3e-4 0.0032,-9.4e-4 8.786108,-2.55287 17.367426,-1.0901 23.594674,2.94761 6.279807,4.0718 9.922609,10.4905 10.531915,17.89269 z"
             style="fill:#2446da;stroke-width:0.392671px"
             id="path34" />
          <path
             d="m 103.02495,-126.88316 c -0.80146,7.37782 -4.526985,14.23682 -9.382136,19.20616 -1.63e-4,1.7e-4 -3.25e-4,3.3e-4 -4.87e-4,5e-4 -1.068197,1.09325 -2.183968,2.08871 -3.331026,2.98077 -4.107556,3.2117 -8.653723,5.127981 -13.349536,5.528995 -7.4e-4,6.3e-5 -0.0015,1.26e-4 -0.0022,1.89e-4 -6.098206,0.519978 -12.21517,-1.531214 -17.718442,-5.519054 -5.419193,-3.92712 -10.447421,-9.95175 -12.662258,-17.16792 l -1.53e-4,-5e-4 c -2.248931,-7.32815 -1.281107,-15.02826 3.448751,-21.54854 4.693865,-6.47015 12.715005,-11.0889 22.083326,-11.90439 0.0012,-1e-4 0.0023,-2e-4 0.0035,-3e-4 7.35906,-0.63992 14.189529,1.17778 19.487679,4.58328 8.462512,5.44176 12.453642,14.35357 11.423022,23.84081 z"
             style="fill:#1b4ee3;stroke-width:0.412618px"
             id="path35" />
          <path
             d="m 133.04371,-120.58458 c -2.32826,7.42408 -7.56104,13.72931 -13.5719,17.8419 -4.4e-4,1.6e-4 -8.7e-4,3.1e-4 -0.001,4.7e-4 -6.05926,4.145281 -12.70293,5.988218 -18.98029,5.27108 -0.001,-1.21e-4 -0.002,-2.43e-4 -0.003,-3.64e-4 -3.675026,-0.420116 -7.105147,-1.674918 -10.276876,-3.616676 -2.453258,-1.50269 -4.782591,-3.44616 -6.891264,-5.74193 -4.738022,-5.15904 -8.629003,-12.41355 -9.347151,-20.35691 l -3.5e-5,-3.9e-4 c -0.728896,-8.06224 1.962447,-15.7482 8.14799,-21.3949 2.675185,-2.4419 5.920339,-4.40839 9.583341,-5.747 4.694185,-1.72678 10.009595,-2.40726 15.468565,-1.78594 0.002,1.8e-4 0.003,3.6e-4 0.005,5.4e-4 9.89027,1.12593 17.9474,6.197 22.58388,12.90601 4.67528,6.76516 5.73174,14.8176 3.28354,22.62411 z"
             style="fill:#1256ec;stroke-width:0.432565px"
             id="path36" />
          <path
             d="m 163.72274,-107.31976 c -3.98796,7.08315 -10.71579,12.420263 -17.71479,15.353447 -4.8e-4,1.06e-4 -9.6e-4,2.13e-4 -0.001,3.19e-4 -3.82114,1.601185 -7.68674,2.477119 -11.37159,2.622301 -3.15612,0.131178 -6.22389,-0.266068 -9.1496,-1.226933 -6.8e-4,-2.22e-4 -0.001,-4.45e-4 -0.002,-6.68e-4 -6.51082,-2.13899 -11.84529,-6.912383 -15.65222,-13.284556 -3.74999,-6.27688 -6.18691,-14.51382 -5.19259,-22.84336 l 2e-5,-1.3e-4 c 1.00909,-8.45329 5.45142,-15.69424 12.92401,-20.13224 7.40924,-4.40117 17.3623,-5.66479 27.20959,-2.42812 0.001,3.3e-4 0.002,6.6e-4 0.003,9.9e-4 4.42238,1.45428 8.35207,3.66909 11.62814,6.39394 0,0 0,0 0,0 11.25756,9.3255 13.80149,24.03208 7.31948,35.54501 z"
             style="fill:#095ef5;stroke-width:0.452512px"
             id="path37" />
          <path
             id="circle10"
             style="fill:#0066ff;stroke-width:0.472459"
             d="m 192.94433,-86.038566 c -5.76764,6.205096 -13.90736,10.000726 -21.62833,11.369404 -7.74978,1.373787 -15.09795,0.336578 -20.95264,-3.129338 -6.07466,-3.596145 -10.69056,-9.862922 -13.16982,-17.835959 -2.2777,-7.296261 -2.63817,-15.869581 0.0137,-23.581581 2.67381,-7.77569 8.30156,-14.22708 16.63381,-17.3492 9.00836,-3.38243 19.9699,-2.31727 29.42459,3.29838 9.08096,5.39368 15.23678,14.08631 16.8847,23.29238 1.65534,9.2475 -1.37351,17.660987 -7.20605,23.935914 z" />
        </g>
      </g>
    </g>
    <g
       id="g62"
       inkscape:export-filename="Helium.png"
       inkscape:export-xdpi="16"
       inkscape:export-ydpi="16">
      <circle
         style="fill:url(#linearGradient50);stroke-width:0.854756"
         id="circle49"
         cx="-1248.9476"
         cy="-766.18256"
         r="60.771008" />
      <g
         id="g47"
         transform="rotate(42.621426,548.60531,-1995.8287)"
         inkscape:transform-center-y="-171.48918"
         inkscape:transform-center-x="-155.68711">
        <g
           id="g46"
           inkscape:transform-center-x="1.5347921"
           inkscape:transform-center-y="-144.01465">
          <path
             id="path40"
             style="fill:#3737c8;stroke-width:0.352777"
             d="m 29.318272,-115.11433 c 2.746896,5.70727 3.156814,12.38656 1.929656,18.160228 -1.228828,5.781521 -4.076735,10.626038 -8.166459,13.724501 -4.089723,3.098464 -9.518795,4.525544 -15.4139573,4.144137 -5.885495,-0.380781 -12.2086306,-2.578864 -16.963815,-6.763518 -4.8003777,-4.224426 -7.6846217,-10.24614 -7.2118677,-17.202098 0.470899,-6.92867 4.27988,-13.82359 10.5186466,-18.55016 6.23885887,-4.72664 13.9023191,-6.52373 20.6961694,-5.10227 6.819838,1.4269 11.839385,5.82925 14.611627,11.58918 z" />
          <path
             d="m 50.313722,-122.93837 c 1.771878,6.46133 0.916991,13.45592 -1.446086,19.23095 -2.2e-5,1e-4 -4.4e-5,2e-4 -6.7e-5,3e-4 -0.969101,2.36834 -2.181614,4.512788 -3.568808,6.372322 -2.019065,2.702974 -4.457793,4.839337 -7.301016,6.305208 -5.89e-4,3.04e-4 -0.0012,6.08e-4 -0.0018,9.11e-4 -4.77414,2.460785 -10.5781,2.941008 -16.640372,1.504156 C 15.36149,-90.945128 9.1275773,-94.28918 4.8521377,-99.503746 l -5.8e-4,-7.08e-4 c -4.32028221,-5.269676 -6.2518236,-12.046136 -4.54383914,-19.182356 1.69956834,-7.10192 6.88023974,-13.67884 14.38077044,-17.54671 9.49e-4,-4.9e-4 0.0019,-9.7e-4 0.0028,-0.001 4.492846,-2.31631 9.257879,-3.37904 13.759098,-3.31019 10.821248,0.2193 19.237482,7.03165 21.863255,16.6068 z"
             style="fill:#2d3ed1;stroke-width:0.372724px"
             id="path41" />
          <path
             d="m 75.102078,-127.28463 c 0.579732,7.0429 -1.667872,14.13341 -5.279645,19.64701 -9.5e-5,1.4e-4 -1.9e-4,2.9e-4 -2.85e-4,4.3e-4 -3.640065,5.55684 -8.51296,9.374531 -13.91031,10.940816 -6.72e-4,1.95e-4 -0.0013,3.9e-4 -0.002,5.84e-4 -3.288521,0.953983 -6.698985,1.075343 -10.166331,0.47519 -2.369292,-0.428961 -4.807809,-1.198707 -7.218803,-2.29381 -5.829983,-2.64801 -11.665906,-7.28917 -15.115748,-13.55333 l -3.78e-4,-6.8e-4 c -3.490276,-6.33799 -4.143743,-13.72773 -0.947002,-20.76131 1.288838,-2.83478 3.1597,-5.48994 5.546398,-7.82406 3.45945,-3.37362 7.920725,-6.00344 12.964306,-7.4702 0.0011,-3.2e-4 0.0021,-6.3e-4 0.0032,-9.4e-4 8.786108,-2.55287 17.367426,-1.0901 23.594674,2.94761 6.279807,4.0718 9.922609,10.4905 10.531915,17.89269 z"
             style="fill:#2446da;stroke-width:0.392671px"
             id="path42" />
          <path
             d="m 103.02495,-126.88316 c -0.80146,7.37782 -4.526985,14.23682 -9.382136,19.20616 -1.63e-4,1.7e-4 -3.25e-4,3.3e-4 -4.87e-4,5e-4 -1.068197,1.09325 -2.183968,2.08871 -3.331026,2.98077 -4.107556,3.2117 -8.653723,5.127981 -13.349536,5.528995 -7.4e-4,6.3e-5 -0.0015,1.26e-4 -0.0022,1.89e-4 -6.098206,0.519978 -12.21517,-1.531214 -17.718442,-5.519054 -5.419193,-3.92712 -10.447421,-9.95175 -12.662258,-17.16792 l -1.53e-4,-5e-4 c -2.248931,-7.32815 -1.281107,-15.02826 3.448751,-21.54854 4.693865,-6.47015 12.715005,-11.0889 22.083326,-11.90439 0.0012,-1e-4 0.0023,-2e-4 0.0035,-3e-4 7.35906,-0.63992 14.189529,1.17778 19.487679,4.58328 8.462512,5.44176 12.453642,14.35357 11.423022,23.84081 z"
             style="fill:#1b4ee3;stroke-width:0.412618px"
             id="path43" />
          <path
             d="m 133.04371,-120.58458 c -2.32826,7.42408 -7.56104,13.72931 -13.5719,17.8419 -4.4e-4,1.6e-4 -8.7e-4,3.1e-4 -0.001,4.7e-4 -6.05926,4.145281 -12.70293,5.988218 -18.98029,5.27108 -0.001,-1.21e-4 -0.002,-2.43e-4 -0.003,-3.64e-4 -3.675026,-0.420116 -7.105147,-1.674918 -10.276876,-3.616676 -2.453258,-1.50269 -4.782591,-3.44616 -6.891264,-5.74193 -4.738022,-5.15904 -8.629003,-12.41355 -9.347151,-20.35691 l -3.5e-5,-3.9e-4 c -0.728896,-8.06224 1.962447,-15.7482 8.14799,-21.3949 2.675185,-2.4419 5.920339,-4.40839 9.583341,-5.747 4.694185,-1.72678 10.009595,-2.40726 15.468565,-1.78594 0.002,1.8e-4 0.003,3.6e-4 0.005,5.4e-4 9.89027,1.12593 17.9474,6.197 22.58388,12.90601 4.67528,6.76516 5.73174,14.8176 3.28354,22.62411 z"
             style="fill:#1256ec;stroke-width:0.432565px"
             id="path44" />
          <path
             d="m 163.72274,-107.31976 c -3.98796,7.08315 -10.71579,12.420263 -17.71479,15.353447 -4.8e-4,1.06e-4 -9.6e-4,2.13e-4 -0.001,3.19e-4 -3.82114,1.601185 -7.68674,2.477119 -11.37159,2.622301 -3.15612,0.131178 -6.22389,-0.266068 -9.1496,-1.226933 -6.8e-4,-2.22e-4 -0.001,-4.45e-4 -0.002,-6.68e-4 -6.51082,-2.13899 -11.84529,-6.912383 -15.65222,-13.284556 -3.74999,-6.27688 -6.18691,-14.51382 -5.19259,-22.84336 l 2e-5,-1.3e-4 c 1.00909,-8.45329 5.45142,-15.69424 12.92401,-20.13224 7.40924,-4.40117 17.3623,-5.66479 27.20959,-2.42812 0.001,3.3e-4 0.002,6.6e-4 0.003,9.9e-4 4.42238,1.45428 8.35207,3.66909 11.62814,6.39394 0,0 0,0 0,0 11.25756,9.3255 13.80149,24.03208 7.31948,35.54501 z"
             style="fill:#095ef5;stroke-width:0.452512px"
             id="path45" />
          <path
             id="path46"
             style="fill:#0066ff;stroke-width:0.472459"
             d="m 192.94433,-86.038566 c -5.76764,6.205096 -13.90736,10.000726 -21.62833,11.369404 -7.74978,1.373787 -15.09795,0.336578 -20.95264,-3.129338 -6.07466,-3.596145 -10.69056,-9.862922 -13.16982,-17.835959 -2.2777,-7.296261 -2.63817,-15.869581 0.0137,-23.581581 2.67381,-7.77569 8.30156,-14.22708 16.63381,-17.3492 9.00836,-3.38243 19.9699,-2.31727 29.42459,3.29838 9.08096,5.39368 15.23678,14.08631 16.8847,23.29238 1.65534,9.2475 -1.37351,17.660987 -7.20605,23.935914 z" />
        </g>
      </g>
      <circle
         style="fill:url(#linearGradient61);stroke-width:0.854756"
         id="circle47"
         cx="-1251.8417"
         cy="-693.83173"
         r="60.771008" />
      <circle
         style="fill:url(#linearGradient49);stroke-width:0.854756"
         id="circle48"
         cx="-1327.0864"
         cy="-686.59668"
         r="60.771008" />
      <g
         id="g57"
         transform="rotate(-137.37857,-788.18186,-1.1081513)"
         inkscape:transform-center-y="171.48912"
         inkscape:transform-center-x="155.68706">
        <g
           id="g56"
           inkscape:transform-center-x="1.5347921"
           inkscape:transform-center-y="-144.01465">
          <path
             id="path50"
             style="fill:#3737c8;stroke-width:0.352777"
             d="m 29.318272,-115.11433 c 2.746896,5.70727 3.156814,12.38656 1.929656,18.160228 -1.228828,5.781521 -4.076735,10.626038 -8.166459,13.724501 -4.089723,3.098464 -9.518795,4.525544 -15.4139573,4.144137 -5.885495,-0.380781 -12.2086306,-2.578864 -16.963815,-6.763518 -4.8003777,-4.224426 -7.6846217,-10.24614 -7.2118677,-17.202098 0.470899,-6.92867 4.27988,-13.82359 10.5186466,-18.55016 6.23885887,-4.72664 13.9023191,-6.52373 20.6961694,-5.10227 6.819838,1.4269 11.839385,5.82925 14.611627,11.58918 z" />
          <path
             d="m 50.313722,-122.93837 c 1.771878,6.46133 0.916991,13.45592 -1.446086,19.23095 -2.2e-5,1e-4 -4.4e-5,2e-4 -6.7e-5,3e-4 -0.969101,2.36834 -2.181614,4.512788 -3.568808,6.372322 -2.019065,2.702974 -4.457793,4.839337 -7.301016,6.305208 -5.89e-4,3.04e-4 -0.0012,6.08e-4 -0.0018,9.11e-4 -4.77414,2.460785 -10.5781,2.941008 -16.640372,1.504156 C 15.36149,-90.945128 9.1275773,-94.28918 4.8521377,-99.503746 l -5.8e-4,-7.08e-4 c -4.32028221,-5.269676 -6.2518236,-12.046136 -4.54383914,-19.182356 1.69956834,-7.10192 6.88023974,-13.67884 14.38077044,-17.54671 9.49e-4,-4.9e-4 0.0019,-9.7e-4 0.0028,-0.001 4.492846,-2.31631 9.257879,-3.37904 13.759098,-3.31019 10.821248,0.2193 19.237482,7.03165 21.863255,16.6068 z"
             style="fill:#2d3ed1;stroke-width:0.372724px"
             id="path51" />
          <path
             d="m 75.102078,-127.28463 c 0.579732,7.0429 -1.667872,14.13341 -5.279645,19.64701 -9.5e-5,1.4e-4 -1.9e-4,2.9e-4 -2.85e-4,4.3e-4 -3.640065,5.55684 -8.51296,9.374531 -13.91031,10.940816 -6.72e-4,1.95e-4 -0.0013,3.9e-4 -0.002,5.84e-4 -3.288521,0.953983 -6.698985,1.075343 -10.166331,0.47519 -2.369292,-0.428961 -4.807809,-1.198707 -7.218803,-2.29381 -5.829983,-2.64801 -11.665906,-7.28917 -15.115748,-13.55333 l -3.78e-4,-6.8e-4 c -3.490276,-6.33799 -4.143743,-13.72773 -0.947002,-20.76131 1.288838,-2.83478 3.1597,-5.48994 5.546398,-7.82406 3.45945,-3.37362 7.920725,-6.00344 12.964306,-7.4702 0.0011,-3.2e-4 0.0021,-6.3e-4 0.0032,-9.4e-4 8.786108,-2.55287 17.367426,-1.0901 23.594674,2.94761 6.279807,4.0718 9.922609,10.4905 10.531915,17.89269 z"
             style="fill:#2446da;stroke-width:0.392671px"
             id="path52" />
          <path
             d="m 103.02495,-126.88316 c -0.80146,7.37782 -4.526985,14.23682 -9.382136,19.20616 -1.63e-4,1.7e-4 -3.25e-4,3.3e-4 -4.87e-4,5e-4 -1.068197,1.09325 -2.183968,2.08871 -3.331026,2.98077 -4.107556,3.2117 -8.653723,5.127981 -13.349536,5.528995 -7.4e-4,6.3e-5 -0.0015,1.26e-4 -0.0022,1.89e-4 -6.098206,0.519978 -12.21517,-1.531214 -17.718442,-5.519054 -5.419193,-3.92712 -10.447421,-9.95175 -12.662258,-17.16792 l -1.53e-4,-5e-4 c -2.248931,-7.32815 -1.281107,-15.02826 3.448751,-21.54854 4.693865,-6.47015 12.715005,-11.0889 22.083326,-11.90439 0.0012,-1e-4 0.0023,-2e-4 0.0035,-3e-4 7.35906,-0.63992 14.189529,1.17778 19.487679,4.58328 8.462512,5.44176 12.453642,14.35357 11.423022,23.84081 z"
             style="fill:#1b4ee3;stroke-width:0.412618px"
             id="path53" />
          <path
             d="m 133.04371,-120.58458 c -2.32826,7.42408 -7.56104,13.72931 -13.5719,17.8419 -4.4e-4,1.6e-4 -8.7e-4,3.1e-4 -0.001,4.7e-4 -6.05926,4.145281 -12.70293,5.988218 -18.98029,5.27108 -0.001,-1.21e-4 -0.002,-2.43e-4 -0.003,-3.64e-4 -3.675026,-0.420116 -7.105147,-1.674918 -10.276876,-3.616676 -2.453258,-1.50269 -4.782591,-3.44616 -6.891264,-5.74193 -4.738022,-5.15904 -8.629003,-12.41355 -9.347151,-20.35691 l -3.5e-5,-3.9e-4 c -0.728896,-8.06224 1.962447,-15.7482 8.14799,-21.3949 2.675185,-2.4419 5.920339,-4.40839 9.583341,-5.747 4.694185,-1.72678 10.009595,-2.40726 15.468565,-1.78594 0.002,1.8e-4 0.003,3.6e-4 0.005,5.4e-4 9.89027,1.12593 17.9474,6.197 22.58388,12.90601 4.67528,6.76516 5.73174,14.8176 3.28354,22.62411 z"
             style="fill:#1256ec;stroke-width:0.432565px"
             id="path54" />
          <path
             d="m 163.72274,-107.31976 c -3.98796,7.08315 -10.71579,12.420263 -17.71479,15.353447 -4.8e-4,1.06e-4 -9.6e-4,2.13e-4 -0.001,3.19e-4 -3.82114,1.601185 -7.68674,2.477119 -11.37159,2.622301 -3.15612,0.131178 -6.22389,-0.266068 -9.1496,-1.226933 -6.8e-4,-2.22e-4 -0.001,-4.45e-4 -0.002,-6.68e-4 -6.51082,-2.13899 -11.84529,-6.912383 -15.65222,-13.284556 -3.74999,-6.27688 -6.18691,-14.51382 -5.19259,-22.84336 l 2e-5,-1.3e-4 c 1.00909,-8.45329 5.45142,-15.69424 12.92401,-20.13224 7.40924,-4.40117 17.3623,-5.66479 27.20959,-2.42812 0.001,3.3e-4 0.002,6.6e-4 0.003,9.9e-4 4.42238,1.45428 8.35207,3.66909 11.62814,6.39394 0,0 0,0 0,0 11.25756,9.3255 13.80149,24.03208 7.31948,35.54501 z"
             style="fill:#095ef5;stroke-width:0.452512px"
             id="path55" />
          <path
             id="path56"
             style="fill:#0066ff;stroke-width:0.472459"
             d="m 192.94433,-86.038566 c -5.76764,6.205096 -13.90736,10.000726 -21.62833,11.369404 -7.74978,1.373787 -15.09795,0.336578 -20.95264,-3.129338 -6.07466,-3.596145 -10.69056,-9.862922 -13.16982,-17.835959 -2.2777,-7.296261 -2.63817,-15.869581 0.0137,-23.581581 2.67381,-7.77569 8.30156,-14.22708 16.63381,-17.3492 9.00836,-3.38243 19.9699,-2.31727 29.42459,3.29838 9.08096,5.39368 15.23678,14.08631 16.8847,23.29238 1.65534,9.2475 -1.37351,17.660987 -7.20605,23.935914 z" />
        </g>
      </g>
      <circle
         style="fill:url(#linearGradient62);stroke-width:0.854756"
         id="circle61"
         cx="-1332.8745"
         cy="-756.05341"
         r="60.771008" />
    </g>
  </g>
</svg>
